<svg width="25" height="24" viewBox="0 0 25 24" fill="none" xmlns="http://www.w3.org/2000/svg">
<path d="M21.0847 7.20328C21.0847 7.20328 21.5599 0.773931 15.7017 0.0396047C10.6798 -0.47622 9.15195 4.21708 9.15195 4.21708C9.15195 4.21708 7.64101 2.75442 5.58839 3.9487C3.75205 5.0891 4.07745 7.17534 4.07745 7.17534C4.07745 7.17534 0 7.97352 0 12.154C0.0912714 16.3305 4.42865 16.3724 4.42865 16.3724H20.3833C20.3833 16.3724 24.4191 16.3764 24.9875 12.4044C25.2564 8.06033 21.0847 7.20328 21.0847 7.20328ZM6.30567 18.9316C6.12808 18.5784 5.96935 18.1024 5.83046 17.5058C5.69355 18.1024 5.53581 18.5774 5.35823 18.9316C4.98521 19.6769 4.38897 20.2565 4.38897 20.2565C3.91376 20.7883 3.67665 21.3211 3.67665 21.8539C3.67665 22.4425 3.88896 22.9464 4.31258 23.3684C4.73619 23.7895 5.24216 24 5.82947 24C6.42075 24 6.92671 23.7895 7.35033 23.3684C7.77494 22.9464 7.98625 22.4425 7.98625 21.8539C7.98625 21.3221 7.74914 20.7893 7.27493 20.2565C7.27493 20.2565 6.67968 19.6769 6.30567 18.9316ZM13.2502 18.9316C13.0727 18.5784 12.9139 18.1024 12.775 17.5058C12.6371 18.1024 12.4804 18.5774 12.3028 18.9316C11.9298 19.6769 11.3325 20.2565 11.3325 20.2565C10.8583 20.7883 10.6212 21.3211 10.6212 21.8539C10.6212 22.4425 10.8325 22.9464 11.2571 23.3684C11.6798 23.7895 12.1857 24 12.774 24C13.3653 24 13.8713 23.7895 14.2949 23.3684C14.7195 22.9464 14.9308 22.4425 14.9308 21.8539C14.9308 21.3221 14.6937 20.7893 14.2185 20.2565C14.2185 20.2565 13.6233 19.6769 13.2502 18.9316ZM20.1948 18.9316C20.0172 18.5784 19.8585 18.1024 19.7196 17.5058C19.5817 18.1024 19.4249 18.5774 19.2474 18.9316C18.8733 19.6769 18.2771 20.2565 18.2771 20.2565C17.8029 20.7883 17.5658 21.3211 17.5658 21.8539C17.5658 22.4425 17.7771 22.9464 18.2017 23.3684C18.6243 23.7895 19.1303 24 19.7186 24C20.3099 24 20.8158 23.7895 21.2395 23.3684C21.6641 22.9464 21.8754 22.4425 21.8754 21.8539C21.8754 21.3221 21.6383 20.7893 21.1641 20.2565C21.1641 20.2565 20.5678 19.6769 20.1948 18.9316Z" fill="#A9A9A9"/>
</svg>
