<svg width="86" height="50" viewBox="0 0 86 50" fill="none" xmlns="http://www.w3.org/2000/svg">
<path d="M79.8558 1H6.36825C3.52723 1 1.22412 2.93172 1.22412 5.31461V44.7625C1.22412 47.1454 3.52723 49.0771 6.36825 49.0771H79.8558C82.6968 49.0771 84.9999 47.1454 84.9999 44.7625V5.31461C84.9999 2.93172 82.6968 1 79.8558 1Z" fill="white" stroke="black"/>
<path fill-rule="evenodd" clip-rule="evenodd" d="M29.3924 20.3225C29.9892 20.3225 30.5042 20.4115 30.9372 20.587C31.3722 20.7637 31.7317 21.002 32.0195 21.3017C32.3036 21.6029 32.5151 21.9551 32.6516 22.3583C32.7873 22.763 32.8553 23.1978 32.8553 23.6635C32.8553 24.3783 32.6985 25.0543 32.3813 25.6911C32.0646 26.3288 31.6343 26.882 31.0871 27.354C30.5405 27.8254 29.895 28.1968 29.1505 28.4711C28.4071 28.7463 27.5994 28.8832 26.7318 28.8832C26.6195 28.8832 26.4222 28.8809 26.1437 28.8756C25.865 28.8709 25.5446 28.8471 25.186 28.8064C24.825 28.7646 24.4435 28.7025 24.0402 28.6193C23.6375 28.5376 23.2549 28.4228 22.8945 28.2774L26.1156 16.9831L29.0006 16.6099L27.8476 20.6176C28.0945 20.5248 28.3432 20.4526 28.5914 20.4004C28.8411 20.3498 29.1073 20.3225 29.3924 20.3225ZM26.9726 26.9737C27.4071 26.9737 27.8163 26.8847 28.2011 26.7094C28.5869 26.5345 28.9198 26.2977 29.1983 26.0027C29.477 25.7069 29.6982 25.3731 29.8591 25.0002C30.02 24.6277 30.1013 24.239 30.1013 23.8343C30.1013 23.3373 30.0021 22.9495 29.8034 22.6694C29.6048 22.3901 29.2378 22.2501 28.7046 22.2501C28.5298 22.2501 28.3045 22.2777 28.0254 22.3272C27.7454 22.3805 27.4948 22.4898 27.2701 22.6545L26.042 26.9112C26.1161 26.9215 26.1818 26.9323 26.2375 26.9419C26.2922 26.9522 26.3524 26.9599 26.4127 26.9653C26.4765 26.9715 26.5492 26.9741 26.637 26.9741C26.7248 26.9741 26.8361 26.9737 26.9726 26.9737Z" fill="#4D4D4D"/>
<path fill-rule="evenodd" clip-rule="evenodd" d="M35.8477 28.6661H33.0918L35.4191 20.4944H38.1939L35.8477 28.6661ZM37.1884 19.4996C36.8035 19.4996 36.455 19.4037 36.1456 19.2126C35.8335 19.0224 35.679 18.7293 35.679 18.3344C35.679 18.1173 35.7318 17.9132 35.8367 17.7214C35.9428 17.5296 36.0822 17.3638 36.2565 17.2237C36.4306 17.0845 36.632 16.9732 36.861 16.8891C37.0913 16.8067 37.3364 16.7656 37.5976 16.7656C37.982 16.7656 38.3291 16.8612 38.6394 17.0526C38.9488 17.2448 39.1047 17.5379 39.1047 17.9304C39.1047 18.1484 39.0522 18.3533 38.9461 18.5451C38.8407 18.7369 38.702 18.9019 38.5277 19.0426C38.3553 19.1819 38.1516 19.2929 37.923 19.3761C37.6927 19.4597 37.449 19.4996 37.1884 19.4996Z" fill="#4D4D4D"/>
<path fill-rule="evenodd" clip-rule="evenodd" d="M40.609 18.4597L43.4954 18.0864L42.7866 20.4947H45.8776L45.3194 22.3896H42.2467L41.4284 25.2482C41.353 25.4865 41.3102 25.709 41.2983 25.9154C41.2849 26.1233 41.3162 26.3017 41.3906 26.4517C41.4647 26.6021 41.598 26.718 41.7911 26.8005C41.9833 26.8838 42.2586 26.9256 42.6192 26.9256C42.9162 26.9256 43.2059 26.9022 43.4859 26.855C43.7639 26.8093 44.0463 26.7449 44.3319 26.6609L44.5373 28.433C44.1649 28.5469 43.7617 28.6451 43.3271 28.7276C42.8922 28.811 42.3768 28.8511 41.7814 28.8511C40.9254 28.8511 40.2615 28.7456 39.7889 28.5343C39.3166 28.3213 38.9828 28.0309 38.7828 27.663C38.5856 27.2966 38.4978 26.8738 38.5227 26.3977C38.5484 25.9204 38.6344 25.4186 38.7828 24.8903L40.609 18.4597Z" fill="#4D4D4D"/>
<path fill-rule="evenodd" clip-rule="evenodd" d="M45.7559 25.4044C45.7559 24.7003 45.8924 24.037 46.1655 23.4151C46.4377 22.7931 46.8302 22.2495 47.3397 21.7825C47.8473 21.3179 48.4652 20.9501 49.1926 20.6803C49.9167 20.4114 50.7273 20.2759 51.621 20.2759C52.1801 20.2759 52.6799 20.3196 53.1195 20.4083C53.5608 20.4973 53.9603 20.6128 54.3213 20.7574L53.3709 22.561C53.1227 22.4769 52.8647 22.403 52.5986 22.3354C52.3318 22.2671 52.0063 22.2341 51.6215 22.2341C50.702 22.2341 49.9746 22.4985 49.4335 23.0256C48.8947 23.5535 48.6229 24.2637 48.6229 25.155C48.6229 25.6832 48.7594 26.1099 49.0334 26.4368C49.3062 26.7632 49.8096 26.9256 50.5411 26.9256C50.902 26.9256 51.2501 26.8941 51.5839 26.8327C51.9198 26.7705 52.2164 26.6927 52.4781 26.5999L52.6835 28.4482C52.3351 28.5614 51.9507 28.6635 51.529 28.7525C51.1066 28.8389 50.6035 28.883 50.0202 28.883C49.2505 28.883 48.5985 28.7893 48.0657 28.6041C47.5323 28.4161 47.0914 28.1663 46.7443 27.8501C46.3953 27.5333 46.1448 27.163 45.9898 26.7383C45.8343 26.3151 45.7559 25.8693 45.7559 25.4044Z" fill="#4D4D4D"/>
<path fill-rule="evenodd" clip-rule="evenodd" d="M57.9969 28.884C57.3388 28.884 56.7679 28.8008 56.2833 28.6354C55.8 28.4697 55.4001 28.2376 55.0832 27.9364C54.7665 27.6367 54.5288 27.2814 54.3664 26.8724C54.2037 26.4639 54.126 26.0107 54.126 25.5147C54.126 24.892 54.2461 24.2697 54.4878 23.6489C54.7287 23.0275 55.086 22.4688 55.5596 21.972C56.029 21.4743 56.6078 21.0677 57.2902 20.7504C57.9711 20.4358 58.755 20.2773 59.635 20.2773C60.2806 20.2773 60.8492 20.3609 61.3402 20.5264C61.8289 20.692 62.2318 20.9258 62.5503 21.2253C62.8653 21.5265 63.1048 21.8803 63.2658 22.29C63.428 22.6978 63.5075 23.1521 63.5075 23.6485C63.5075 24.2693 63.3894 24.8916 63.1549 25.5143C62.9201 26.1335 62.5719 26.6937 62.1122 27.1913C61.6533 27.6881 61.0795 28.0944 60.3903 28.4105C59.7012 28.726 58.9025 28.884 57.9969 28.884ZM59.3739 22.2352C58.9651 22.2352 58.6042 22.3342 58.2948 22.5298C57.9844 22.7274 57.7238 22.976 57.5136 23.2756C57.3012 23.5764 57.1435 23.9056 57.0373 24.2621C56.932 24.6199 56.88 24.958 56.88 25.2795C56.88 25.7978 56.9802 26.2014 57.177 26.4922C57.3771 26.7812 57.7357 26.9265 58.2574 26.9265C58.6676 26.9265 59.0267 26.8284 59.338 26.6308C59.6465 26.4347 59.9071 26.1861 60.1192 25.8857C60.3301 25.5864 60.4893 25.2565 60.5954 24.8993C60.6997 24.5425 60.7526 24.2025 60.7526 23.8818C60.7526 23.3646 60.6528 22.9603 60.4543 22.6699C60.2557 22.3802 59.8952 22.2352 59.3739 22.2352Z" fill="#4D4D4D"/>
<path fill-rule="evenodd" clip-rule="evenodd" d="M66.5101 28.6661H63.7524L66.0798 20.4944H68.8559L66.5101 28.6661ZM67.8489 19.4996C67.4646 19.4996 67.1161 19.4037 66.8072 19.2126C66.4963 19.0224 66.3405 18.7293 66.3405 18.3344C66.3405 18.1173 66.3937 17.9132 66.4991 17.7214C66.6043 17.5296 66.7441 17.3638 66.9184 17.2237C67.0917 17.0845 67.295 16.9732 67.5234 16.8891C67.7524 16.8067 67.9975 16.7656 68.2581 16.7656C68.6435 16.7656 68.9915 16.8612 69.3013 17.0526C69.6118 17.2448 69.768 17.5379 69.768 17.9304C69.768 18.1484 69.7124 18.3533 69.6081 18.5451C69.5037 18.7369 69.3644 18.9019 69.1905 19.0426C69.0159 19.1819 68.8154 19.2929 68.5865 19.3761C68.3557 19.4597 68.111 19.4996 67.8489 19.4996Z" fill="#4D4D4D"/>
<path fill-rule="evenodd" clip-rule="evenodd" d="M70.8402 20.8673C71.0495 20.8162 71.283 20.7549 71.5373 20.6882C71.7924 20.6214 72.077 20.5592 72.3952 20.5033C72.7102 20.4457 73.0651 20.3992 73.4559 20.3625C73.8467 20.3256 74.2913 20.3076 74.7865 20.3076C76.2393 20.3076 77.2415 20.6606 77.7948 21.3649C78.3469 22.0693 78.4429 23.0331 78.0839 24.2543L76.8168 28.6664H74.0429L75.2715 24.3471C75.346 24.0774 75.4052 23.8165 75.4484 23.5618C75.4927 23.3097 75.4899 23.0872 75.4389 22.8945C75.3905 22.7043 75.2747 22.5489 75.0959 22.4281C74.9138 22.3087 74.6389 22.2497 74.266 22.2497C73.9068 22.2497 73.5414 22.2819 73.168 22.344L71.3617 28.6664H68.5869L70.8402 20.8673Z" fill="#4D4D4D"/>
<path fill-rule="evenodd" clip-rule="evenodd" d="M37.545 33.5371L37.0042 34.3566H36.4194C36.8314 33.7365 37.2332 33.1657 37.6249 32.644C38.0166 32.1221 38.4037 31.6295 38.7863 31.166H39.3104C39.3655 31.3963 39.4161 31.6292 39.4621 31.8635C39.5081 32.0983 39.5532 32.3446 39.5973 32.6025C39.6414 32.8603 39.6837 33.1338 39.7242 33.4223C39.7647 33.7109 39.8069 34.022 39.8512 34.357H39.3104C39.2921 34.2189 39.2755 34.08 39.2608 33.9403C39.2461 33.8006 39.2294 33.6664 39.2111 33.5374L37.545 33.5371ZM39.1614 33.1776C39.132 32.9293 39.0981 32.6819 39.0594 32.4364C39.0207 32.1908 38.9758 31.9376 38.9242 31.6767C38.7954 31.8333 38.6355 32.0355 38.4442 32.2821C38.2529 32.5296 38.0359 32.8278 37.7932 33.1776H39.1614Z" fill="#4D4D4D"/>
<path fill-rule="evenodd" clip-rule="evenodd" d="M41.8066 34.425C41.5674 34.425 41.3568 34.3958 41.1749 34.3375C40.9928 34.2792 40.8411 34.1963 40.7197 34.089C40.5983 33.9818 40.5071 33.8518 40.4466 33.6999C40.3859 33.5479 40.3555 33.3768 40.3555 33.1866C40.3555 32.9103 40.4079 32.6464 40.5127 32.3947C40.6175 32.1433 40.7666 31.9208 40.9597 31.7275C41.1527 31.5341 41.3853 31.3799 41.6575 31.2644C41.9297 31.1494 42.2328 31.0918 42.5679 31.0918C42.8548 31.0918 43.0838 31.1163 43.2548 31.1654C43.4258 31.2146 43.5481 31.2606 43.6217 31.3036L43.4009 31.6718C43.316 31.6258 43.2015 31.5821 43.0561 31.5406C42.9109 31.4996 42.739 31.4785 42.5403 31.4785C42.2866 31.4785 42.0585 31.5284 41.8562 31.6285C41.6538 31.7283 41.4828 31.8572 41.3431 32.0152C41.2034 32.1733 41.0967 32.3513 41.023 32.5493C40.9495 32.7473 40.9128 32.9429 40.9128 33.1363C40.9128 33.7348 41.2235 34.0341 41.8452 34.0341C41.9775 34.0341 42.0962 34.026 42.201 34.0107C42.3058 33.9957 42.3987 33.9777 42.4796 33.9577C42.5605 33.9377 42.6323 33.9159 42.6947 33.891C42.7573 33.8665 42.8125 33.8449 42.8604 33.8265L42.9265 34.2132C42.8824 34.2347 42.8245 34.2577 42.7528 34.2823C42.6811 34.3068 42.5973 34.3299 42.5017 34.3518C42.4061 34.3732 42.2994 34.3909 42.1816 34.4047C42.0641 34.4185 41.939 34.425 41.8066 34.425Z" fill="#4D4D4D"/>
<path fill-rule="evenodd" clip-rule="evenodd" d="M44.9065 34.425C44.6675 34.425 44.4569 34.3958 44.2748 34.3375C44.0928 34.2792 43.941 34.1963 43.8196 34.089C43.6984 33.9818 43.6072 33.8518 43.5465 33.6999C43.4858 33.5479 43.4556 33.3768 43.4556 33.1866C43.4556 32.9103 43.5079 32.6464 43.6128 32.3947C43.7176 32.1433 43.8665 31.9208 44.0596 31.7275C44.2528 31.5341 44.4854 31.3799 44.7576 31.2644C45.0298 31.1494 45.3327 31.0918 45.668 31.0918C45.9549 31.0918 46.1839 31.1163 46.3548 31.1654C46.5259 31.2146 46.6482 31.2606 46.7218 31.3036L46.501 31.6718C46.4159 31.6258 46.3014 31.5821 46.1562 31.5406C46.0109 31.4996 45.8389 31.4785 45.6404 31.4785C45.3865 31.4785 45.1586 31.5284 44.9562 31.6285C44.7539 31.7283 44.5829 31.8572 44.4431 32.0152C44.3033 32.1733 44.1966 32.3513 44.1231 32.5493C44.0495 32.7473 44.0127 32.9429 44.0127 33.1363C44.0127 33.7348 44.3236 34.0341 44.9452 34.0341C45.0776 34.0341 45.1962 34.026 45.301 34.0107C45.4059 33.9957 45.4988 33.9777 45.5796 33.9577C45.6606 33.9377 45.7324 33.9159 45.7948 33.891C45.8574 33.8665 45.9125 33.8449 45.9603 33.8265L46.0266 34.2132C45.9824 34.2347 45.9245 34.2577 45.8527 34.2823C45.781 34.3068 45.6974 34.3299 45.6017 34.3518C45.5062 34.3732 45.3995 34.3909 45.2817 34.4047C45.164 34.4185 45.0389 34.425 44.9065 34.425Z" fill="#4D4D4D"/>
<path fill-rule="evenodd" clip-rule="evenodd" d="M46.3882 34.3555L47.304 31.165H49.5605L49.4557 31.5379H47.7287L47.453 32.5002H48.9867L48.8819 32.8639H47.3537L47.0281 33.9826H48.8819L48.7771 34.3555H46.3882Z" fill="#4D4D4D"/>
<path fill-rule="evenodd" clip-rule="evenodd" d="M51.1574 31.1333C51.6026 31.1333 51.9381 31.2039 52.1643 31.3451C52.3905 31.4864 52.5037 31.692 52.5037 31.9621C52.5037 32.1708 52.4568 32.3515 52.363 32.503C52.2691 32.655 52.1358 32.78 51.9629 32.8786C51.7901 32.9769 51.5823 33.0494 51.3395 33.0969C51.0967 33.1445 50.8264 33.1687 50.5285 33.1687H50.1478L49.8056 34.3564H49.2705L50.1754 31.2074C50.3299 31.1767 50.4935 31.1567 50.6663 31.1476C50.8393 31.138 51.0029 31.1333 51.1574 31.1333ZM51.0912 31.5109C50.8301 31.5109 50.6719 31.5171 50.6168 31.5293L50.2526 32.7954H50.6002C50.7547 32.7954 50.9128 32.7842 51.0746 32.7609C51.2364 32.7378 51.3818 32.6972 51.5106 32.6392C51.6393 32.5809 51.745 32.5003 51.8277 32.3971C51.9105 32.2943 51.9519 32.1619 51.9519 31.9993C51.9519 31.8244 51.8746 31.6993 51.7201 31.6237C51.5657 31.5485 51.3561 31.5109 51.0912 31.5109Z" fill="#4D4D4D"/>
<path fill-rule="evenodd" clip-rule="evenodd" d="M55.7676 31.165L55.6626 31.5379H54.5096L53.6986 34.3555H53.1634L53.9745 31.5379H52.8213L52.9261 31.165H55.7676Z" fill="#4D4D4D"/>
<path fill-rule="evenodd" clip-rule="evenodd" d="M55.271 34.3555L56.1868 31.165H58.4433L58.3385 31.5379H56.6117L56.3358 32.5002H57.8695L57.7647 32.8639H56.2365L55.9109 33.9826H57.7647L57.6599 34.3555H55.271Z" fill="#4D4D4D"/>
<path fill-rule="evenodd" clip-rule="evenodd" d="M60.0325 31.1333C60.599 31.1333 61.022 31.2446 61.3015 31.4671C61.581 31.6896 61.7208 31.9897 61.7208 32.3672C61.7208 32.6312 61.6711 32.8852 61.5718 33.1287C61.4726 33.3732 61.318 33.5884 61.1084 33.7761C60.8988 33.9628 60.6311 34.1121 60.3056 34.2226C59.98 34.3331 59.5911 34.3884 59.1388 34.3884C58.9843 34.3884 58.8169 34.3822 58.6367 34.3699C58.4565 34.3577 58.2982 34.3361 58.1621 34.3055L59.0504 31.207C59.2049 31.1763 59.3686 31.1564 59.5415 31.1472C59.7143 31.138 59.878 31.1333 60.0325 31.1333ZM59.9884 31.5109C59.7125 31.5109 59.5471 31.5171 59.4918 31.5293L58.7856 33.9878C58.8151 33.9939 58.8647 33.9993 58.9346 34.0039C59.0044 34.0086 59.1185 34.0108 59.2766 34.0108C59.5672 34.0108 59.8292 33.9706 60.0628 33.8892C60.2965 33.8079 60.4942 33.6943 60.656 33.5481C60.8178 33.4023 60.9429 33.2293 61.0311 33.0283C61.1194 32.8272 61.1635 32.6071 61.1635 32.3677C61.1635 32.0976 61.0697 31.8872 60.8822 31.7365C60.6946 31.5865 60.3967 31.5109 59.9884 31.5109Z" fill="#4D4D4D"/>
<path fill-rule="evenodd" clip-rule="evenodd" d="M65.8418 34.3555H65.3067L65.7314 32.8731H63.9604L63.5356 34.3555H63.0005L63.9163 31.165H64.4514L64.0653 32.5002H65.8368L66.2229 31.165H66.7581L65.8418 34.3555Z" fill="#4D4D4D"/>
<path fill-rule="evenodd" clip-rule="evenodd" d="M66.686 34.3555L67.602 31.165H69.8585L69.7533 31.5379H68.0263L67.7504 32.5002H69.2843L69.1789 32.8639H67.6506L67.3257 33.9826H69.1789L69.0736 34.3555H66.686Z" fill="#4D4D4D"/>
<path fill-rule="evenodd" clip-rule="evenodd" d="M71.4552 31.1333C71.8635 31.1333 72.1872 31.2025 72.4261 31.3405C72.6653 31.4786 72.7843 31.6813 72.7843 31.9479C72.7843 32.218 72.6901 32.4447 72.5007 32.6274C72.3112 32.81 72.0455 32.9411 71.7035 33.0206C71.7476 33.0855 71.7991 33.1676 71.8579 33.2673C71.9167 33.367 71.9774 33.4775 72.04 33.5988C72.1021 33.7196 72.1632 33.8458 72.2221 33.9759C72.2809 34.1067 72.3319 34.2329 72.3766 34.3557H71.8303C71.7793 34.2391 71.7255 34.121 71.6704 34.0013C71.6156 33.8815 71.5591 33.7664 71.5025 33.6559C71.4451 33.5454 71.3885 33.4419 71.331 33.3452C71.2744 33.2484 71.2217 33.1629 71.1738 33.0897C71.126 33.0928 71.0782 33.095 71.0303 33.0966C70.9826 33.0981 70.9352 33.0989 70.8869 33.0989H70.4621L70.1035 34.3557H69.5684L70.4736 31.2066C70.628 31.176 70.7913 31.156 70.9646 31.1467C71.137 31.138 71.3008 31.1333 71.4552 31.1333ZM71.3889 31.5109C71.1278 31.5109 70.9696 31.5171 70.9141 31.5293L70.5665 32.7359H70.8925C71.0433 32.7359 71.1977 32.7267 71.3559 32.7083C71.514 32.6899 71.6583 32.6538 71.7886 32.6001C71.9191 32.5464 72.0258 32.4712 72.1085 32.3746C72.1913 32.2778 72.2332 32.1497 72.2332 31.9901C72.2332 31.8182 72.155 31.6954 71.9986 31.6217C71.8424 31.5478 71.6387 31.5109 71.3889 31.5109Z" fill="#4D4D4D"/>
<path fill-rule="evenodd" clip-rule="evenodd" d="M72.8257 34.3555L73.7415 31.165H75.998L75.8928 31.5379H74.1658L73.8899 32.5002H75.4238L75.3185 32.8639H73.7903L73.4652 33.9826H75.3185L75.2131 34.3555H72.8257Z" fill="#4D4D4D"/>
<path fill-rule="evenodd" clip-rule="evenodd" d="M15.191 28.8833C19.2522 28.8833 22.5445 26.136 22.5445 22.7471C22.5445 19.3581 19.2522 16.6108 15.191 16.6108C11.1297 16.6108 7.8374 19.3581 7.8374 22.7471C7.8374 26.136 11.1297 28.8833 15.191 28.8833ZM18.4333 21.8723C18.5794 21.0555 17.8342 20.6165 16.8152 20.3235L17.1459 19.2166L16.339 19.0486L16.0172 20.1263C15.8052 20.0821 15.5872 20.0403 15.3703 19.9993L15.6944 18.9147L14.888 18.7466L14.5569 19.8531C14.3813 19.8197 14.2089 19.7868 14.0415 19.7518L14.0424 19.7483L12.9293 19.5167L12.7146 20.236C12.7146 20.236 13.3133 20.3504 13.3008 20.3577C13.6277 20.4259 13.687 20.6062 13.6769 20.7493L13.3004 22.0097C13.3229 22.0142 13.3519 22.0207 13.3845 22.0323C13.3574 22.0262 13.3289 22.0204 13.299 22.0142L12.7712 23.7806C12.7312 23.8631 12.6296 23.9875 12.4011 23.9403C12.4093 23.9499 11.8144 23.8182 11.8144 23.8182L11.4135 24.5894L12.4636 24.8077C12.659 24.8484 12.8507 24.8913 13.0388 24.9316L12.705 26.0507L13.5109 26.2187L13.842 25.1116C14.0622 25.161 14.276 25.2075 14.4852 25.2508L14.1555 26.3527L14.9624 26.5208L15.2967 25.4039C16.6732 25.6211 17.7081 25.5336 18.1436 24.4946C18.4949 23.6578 18.1261 23.1756 17.4019 22.861C17.9297 22.7597 18.327 22.4705 18.4333 21.8723ZM16.589 24.0304C16.3395 24.8668 14.6521 24.4145 14.105 24.3008L14.5482 22.8185C15.0953 22.9324 16.8498 23.158 16.589 24.0304ZM16.8387 21.8604C16.6112 22.6209 15.2066 22.2345 14.7509 22.1401L15.1528 20.795C15.6084 20.8902 17.0755 21.067 16.8387 21.8604Z" fill="#F7931A"/>
</svg>
