<svg width="86" height="50" viewBox="0 0 86 50" fill="none" xmlns="http://www.w3.org/2000/svg">
<path d="M79.9036 1H6.4161C3.57508 1 1.27197 2.93172 1.27197 5.31461V44.7625C1.27197 47.1454 3.57508 49.0771 6.4161 49.0771H79.9036C82.7447 49.0771 85.0478 47.1454 85.0478 44.7625V5.31461C85.0478 2.93172 82.7447 1 79.9036 1Z" fill="white" stroke="black"/>
<path fill-rule="evenodd" clip-rule="evenodd" d="M31.7679 38.4638V40.2843V42.1049H30.8165V41.6628C30.5148 41.9908 30.0569 42.1965 29.4346 42.1965C28.2077 42.1965 27.2459 41.3969 27.2459 40.2843C27.2459 39.1726 28.2077 38.3722 29.4346 38.3722C30.0569 38.3722 30.5148 38.5779 30.8165 38.9058V38.4638H31.7679ZM29.553 39.1186C28.7295 39.1186 28.2255 39.6444 28.2255 40.2843C28.2255 40.9243 28.7295 41.4501 29.553 41.4501C30.3399 41.4501 30.871 40.947 30.871 40.2843C30.871 39.6217 30.3399 39.1186 29.553 39.1186ZM63.9171 40.2843C63.9171 39.6444 64.421 39.1186 65.2445 39.1186C66.0325 39.1186 66.5626 39.6217 66.5626 40.2843C66.5626 40.947 66.0325 41.4501 65.2445 41.4501C64.421 41.4501 63.9171 40.9243 63.9171 40.2843ZM67.4606 37.0015V40.2843V42.1049H66.5082V41.6628C66.2063 41.9908 65.7485 42.1965 65.1262 42.1965C63.8993 42.1965 62.9375 41.3969 62.9375 40.2843C62.9375 39.1726 63.8993 38.3722 65.1262 38.3722C65.7485 38.3722 66.2063 38.5779 66.5082 38.9058V37.0015H67.4606ZM43.5772 39.0811C44.1901 39.0811 44.584 39.401 44.6846 39.9644H42.4142C42.5157 39.4386 42.8992 39.0811 43.5772 39.0811ZM41.4166 40.2843C41.4166 39.149 42.3135 38.3722 43.596 38.3722C44.8219 38.3722 45.6642 39.149 45.6736 40.2843C45.6736 40.3907 45.6642 40.4901 45.6548 40.5886H42.4058C42.5431 41.2443 43.1014 41.4806 43.7143 41.4806C44.1533 41.4806 44.6207 41.3428 44.9874 41.0996L45.4536 41.6864C44.9224 42.0595 44.319 42.1965 43.6599 42.1965C42.3502 42.1965 41.4166 41.4423 41.4166 40.2843ZM55.0836 40.2843C55.0836 39.6444 55.5875 39.1186 56.411 39.1186C57.1978 39.1186 57.7291 39.6217 57.7291 40.2843C57.7291 40.947 57.1978 41.4501 56.411 41.4501C55.5875 41.4501 55.0836 40.9243 55.0836 40.2843ZM58.626 38.4638V40.2843V42.1049H57.6746V41.6628C57.3718 41.9908 56.915 42.1965 56.2926 42.1965C55.0656 42.1965 54.1038 41.3969 54.1038 40.2843C54.1038 39.1726 55.0656 38.3722 56.2926 38.3722C56.915 38.3722 57.3718 38.5779 57.6746 38.9058V38.4638H58.626ZM49.7106 40.2843C49.7106 41.3891 50.6348 42.1965 52.045 42.1965C52.704 42.1965 53.1431 42.0745 53.6188 41.7622L53.1619 41.1223C52.8047 41.3359 52.4295 41.4501 52.0168 41.4501C51.2571 41.4423 50.6987 40.9853 50.6987 40.2843C50.6987 39.5833 51.2571 39.1264 52.0168 39.1186C52.4295 39.1186 52.8047 39.2327 53.1619 39.4464L53.6188 38.8063C53.1431 38.4942 52.704 38.3722 52.045 38.3722C50.6348 38.3722 49.7106 39.1796 49.7106 40.2843ZM60.8231 38.9058C61.0703 38.5858 61.4276 38.3722 61.9767 38.3722C62.1694 38.3722 62.4439 38.4027 62.6545 38.4715L62.3612 39.2179C62.16 39.149 61.9588 39.1264 61.7661 39.1264C61.1436 39.1264 60.8325 39.4612 60.8325 40.0637V42.1049H59.8801V38.4638H60.8231V38.9058ZM36.4734 38.7532C36.0155 38.5021 35.3848 38.3722 34.689 38.3722C33.5805 38.3722 32.867 38.8142 32.867 39.538C32.867 40.1318 33.3983 40.4979 34.3768 40.6122L34.8263 40.6653C35.348 40.7265 35.5944 40.8406 35.5944 41.0464C35.5944 41.328 35.2465 41.4884 34.5969 41.4884C33.9378 41.4884 33.4622 41.3132 33.1415 41.1074L32.6931 41.7239C33.2148 42.0439 33.8739 42.1965 34.5874 42.1965C35.851 42.1965 36.5834 41.7012 36.5834 41.008C36.5834 40.368 36.0071 40.0332 35.0547 39.919L34.6063 39.8649C34.1946 39.8195 33.8645 39.7516 33.8645 39.5074C33.8645 39.2406 34.1756 39.0811 34.6974 39.0811C35.2559 39.0811 35.7965 39.2563 36.0616 39.3932L36.4734 38.7532ZM47.5964 38.9058C47.8425 38.5858 48.1998 38.3722 48.7488 38.3722C48.9416 38.3722 49.2162 38.4027 49.4266 38.4715L49.1333 39.2179C48.9322 39.149 48.731 39.1264 48.5382 39.1264C47.9159 39.1264 47.6047 39.4612 47.6047 40.0637V42.1049H46.6534V38.4638H47.5964V38.9058ZM40.6297 38.4638H39.0739V37.359H38.1121V38.4638H37.2246V39.1874H38.1121V40.8485C38.1121 41.6934 38.506 42.1965 39.6313 42.1965C40.044 42.1965 40.5198 42.0901 40.8215 41.9148L40.547 41.2364C40.263 41.3734 39.9519 41.4423 39.7047 41.4423C39.2289 41.4423 39.0739 41.1981 39.0739 40.8327V39.1874H40.6297V38.4638ZM26.4045 39.8195V42.1049H25.4427V40.0785C25.4427 39.4612 25.1315 39.1186 24.4819 39.1186C23.85 39.1186 23.411 39.4543 23.411 40.0864V42.1049H22.4492V40.0785C22.4492 39.4612 22.1297 39.1186 21.4979 39.1186C20.8472 39.1186 20.4261 39.4543 20.4261 40.0864V42.1049H19.4653V38.4638H20.4177V38.9127C20.775 38.4864 21.2318 38.3722 21.6991 38.3722C22.3675 38.3722 22.8433 38.6164 23.145 39.02C23.5483 38.5091 24.1246 38.3643 24.6831 38.3722C25.7454 38.38 26.4045 38.9589 26.4045 39.8195Z" fill="#231F20"/>
<path d="M50.5773 32.2761H36.1582V10.7114H50.5773V32.2761Z" fill="#FF5F00"/>
<path d="M37.0728 21.495C37.0728 17.1204 39.5339 13.2237 43.3666 10.7126C40.5639 8.8763 37.0267 7.78027 33.1826 7.78027C24.0819 7.78027 16.7046 13.9205 16.7046 21.495C16.7046 29.0695 24.0819 35.2097 33.1826 35.2097C37.0267 35.2097 40.5639 34.1136 43.3666 32.2773C39.5339 29.7662 37.0728 25.8695 37.0728 21.495Z" fill="#EB001B"/>
<path d="M70.0299 21.495C70.0299 29.0695 62.6526 35.2097 53.5519 35.2097C49.7076 35.2097 46.1705 34.1136 43.3667 32.2773C47.2004 29.7662 49.6616 25.8695 49.6616 21.495C49.6616 17.1204 47.2004 13.2237 43.3667 10.7126C46.1705 8.8763 49.7076 7.78027 53.5519 7.78027C62.6526 7.78027 70.0299 13.9205 70.0299 21.495Z" fill="#F79E1B"/>
</svg>
