<svg width="87" height="51" viewBox="0 0 87 51" fill="none" xmlns="http://www.w3.org/2000/svg">
<path d="M80.8264 1H6.24602C3.36275 1 1.02539 2.96045 1.02539 5.37878V45.4133C1.02539 47.8317 3.36275 49.7921 6.24602 49.7921H80.8264C83.7097 49.7921 86.0471 47.8317 86.0471 45.4133V5.37878C86.0471 2.96045 83.7097 1 80.8264 1Z" fill="white" stroke="black"/>
<path fill-rule="evenodd" clip-rule="evenodd" d="M39.7163 25.7167L40.0929 23.7043L39.2539 23.6879H35.2476L38.0318 8.83817C38.0404 8.79321 38.0685 8.75147 38.1095 8.72177C38.1507 8.69207 38.203 8.67578 38.2579 8.67578H45.0134C47.2562 8.67578 48.8039 9.06827 49.6119 9.84305C49.9908 10.2065 50.232 10.5864 50.3488 11.0044C50.4712 11.443 50.4733 11.967 50.3538 12.6062L50.3452 12.6527V13.0624L50.724 13.2429C51.0429 13.3853 51.2965 13.5482 51.491 13.7346C51.815 14.0455 52.0246 14.4406 52.1132 14.9087C52.2048 15.3903 52.1745 15.9635 52.0246 16.6123C51.8517 17.3586 51.5723 18.0086 51.1949 18.5405C50.8478 19.0305 50.4057 19.4371 49.8805 19.752C49.3794 20.0514 48.7838 20.2786 48.1104 20.424C47.4577 20.5669 46.7139 20.6389 45.8978 20.6389H45.372C44.9963 20.6389 44.6311 20.7529 44.3444 20.9569C44.057 21.1654 43.867 21.4501 43.8086 21.7614L43.769 21.9427L43.1034 25.4896L43.0733 25.6197C43.0652 25.661 43.0515 25.6815 43.0314 25.6954C43.0135 25.7082 42.9877 25.7167 42.9623 25.7167H39.7163Z" fill="#28356A"/>
<path fill-rule="evenodd" clip-rule="evenodd" d="M51.0827 12.6997C51.0627 12.8081 51.0396 12.9189 51.0136 13.0329C50.1228 16.8803 47.0749 18.2094 43.1822 18.2094H41.2002C40.7241 18.2094 40.3228 18.5001 40.2488 18.895L38.9467 25.8429C38.8985 26.1024 39.1361 26.336 39.4471 26.336H42.9625C43.3787 26.336 43.7323 26.0816 43.798 25.7363L43.8324 25.5862L44.4942 22.0531L44.5369 21.8593C44.6016 21.5128 44.956 21.2583 45.3722 21.2583H45.898C49.3038 21.2583 51.97 20.0953 52.7494 16.7294C53.0747 15.3233 52.9063 14.1493 52.0449 13.3236C51.7843 13.0748 51.4609 12.868 51.0827 12.6997Z" fill="#298FC2"/>
<path fill-rule="evenodd" clip-rule="evenodd" d="M50.1496 12.3876C50.0134 12.3542 49.8731 12.324 49.729 12.2967C49.5841 12.27 49.4359 12.2464 49.2831 12.2257C48.7488 12.1531 48.1632 12.1187 47.536 12.1187H42.2411C42.1106 12.1187 41.9868 12.1434 41.8759 12.1882C41.6316 12.287 41.4502 12.4815 41.4064 12.7195L40.2799 18.7206L40.2476 18.8955C40.3217 18.5006 40.7229 18.2098 41.1989 18.2098H43.181C47.0736 18.2098 50.1216 16.88 51.0125 13.0332C51.039 12.9194 51.0614 12.8086 51.0814 12.7002C50.856 12.5995 50.612 12.5135 50.3492 12.4402C50.2841 12.4221 50.2172 12.4046 50.1496 12.3876Z" fill="#22284F"/>
<path fill-rule="evenodd" clip-rule="evenodd" d="M41.407 12.7192C41.451 12.4811 41.6322 12.2866 41.8766 12.1886C41.9881 12.1436 42.1112 12.1188 42.2417 12.1188H47.5366C48.1638 12.1188 48.7494 12.1534 49.2839 12.2261C49.4365 12.2466 49.5847 12.2704 49.7296 12.297C49.8737 12.3241 50.014 12.3545 50.1502 12.3878C50.2178 12.4047 50.2848 12.4224 50.3504 12.4399C50.6132 12.5132 50.8575 12.5999 51.0829 12.6998C51.348 11.278 51.0807 10.31 50.1668 9.43337C49.1592 8.46819 47.3408 8.05518 45.0137 8.05518H38.2581C37.7828 8.05518 37.3774 8.34585 37.3039 8.74156L34.4901 23.744C34.4346 24.0407 34.7068 24.3086 35.0627 24.3086H39.2333L41.407 12.7192Z" fill="#28356A"/>
<path fill-rule="evenodd" clip-rule="evenodd" d="M19.812 29.8008H14.8866C14.5495 29.8008 14.2628 30.0067 14.2102 30.2867L12.218 40.9104C12.1785 41.1202 12.3716 41.309 12.6243 41.309H14.9757C15.3128 41.309 15.5994 41.1032 15.6521 40.8227L16.1894 37.9572C16.2411 37.6767 16.5284 37.4708 16.8649 37.4708H18.4241C21.6686 37.4708 23.5411 36.15 24.0303 33.5331C24.2506 32.3881 24.0396 31.4886 23.402 30.8586C22.702 30.1667 21.4604 29.8008 19.812 29.8008ZM20.3802 33.681C20.1108 35.1675 18.7605 35.1675 17.4549 35.1675H16.7114L17.2329 32.3911C17.2639 32.2234 17.4367 32.0998 17.6385 32.0998H17.9792C18.8686 32.0998 19.7076 32.0998 20.1411 32.5263C20.3997 32.7806 20.4788 33.1587 20.3802 33.681Z" fill="#28356A"/>
<path fill-rule="evenodd" clip-rule="evenodd" d="M34.6604 33.5529H32.3017C32.1008 33.5529 31.9271 33.6765 31.8962 33.8442L31.7918 34.3991L31.6269 34.1981C31.1164 33.5746 29.9775 33.3662 28.8412 33.3662C26.2346 33.3662 24.0086 35.0268 23.5749 37.356C23.3496 38.5179 23.67 39.629 24.4537 40.4038C25.1725 41.1161 26.2009 41.413 27.4245 41.413C29.5247 41.413 30.689 40.2772 30.689 40.2772L30.584 40.8285C30.5445 41.0392 30.7375 41.2282 30.9888 41.2282H33.1133C33.4512 41.2282 33.7364 41.0223 33.7898 40.7418L35.0645 33.9515C35.1048 33.7424 34.9124 33.5529 34.6604 33.5529ZM31.3725 37.4143C31.145 38.5476 30.0757 39.3085 28.7114 39.3085C28.0266 39.3085 27.4794 39.1237 27.1277 38.7736C26.7791 38.426 26.6468 37.931 26.7574 37.3797C26.9701 36.256 28.0575 35.4702 29.4009 35.4702C30.0706 35.4702 30.615 35.6576 30.9738 36.0105C31.3329 36.3673 31.4757 36.8654 31.3725 37.4143Z" fill="#28356A"/>
<path fill-rule="evenodd" clip-rule="evenodd" d="M47.0411 33.7231H44.6708C44.4447 33.7231 44.2323 33.8177 44.1042 33.9759L40.835 38.0261L39.4493 34.1339C39.3622 33.8903 39.095 33.7231 38.7925 33.7231H36.4635C36.1803 33.7231 35.9838 33.9558 36.0738 34.18L38.6846 40.6243L36.2301 43.5389C36.0371 43.7684 36.2315 44.0841 36.565 44.0841H38.9323C39.1571 44.0841 39.3673 43.9919 39.4948 43.837L47.3781 34.2654C47.5669 34.0364 47.373 33.7231 47.0411 33.7231Z" fill="#28356A"/>
<path fill-rule="evenodd" clip-rule="evenodd" d="M54.9422 29.8008H50.0162C49.6798 29.8008 49.3931 30.0067 49.3405 30.2867L47.3484 40.9104C47.3089 41.1202 47.5019 41.309 47.7532 41.309H50.2812C50.5158 41.309 50.7168 41.165 50.7535 40.9687L51.3189 37.9572C51.3707 37.6767 51.6583 37.4708 51.9945 37.4708H53.5531C56.7982 37.4708 58.67 36.15 59.1599 33.5331C59.3809 32.3881 59.1685 31.4886 58.531 30.8586C57.8316 30.1667 56.5907 29.8008 54.9422 29.8008ZM55.5105 33.681C55.2419 35.1675 53.8914 35.1675 52.585 35.1675H51.8426L52.3647 32.3911C52.3956 32.2234 52.567 32.0998 52.7694 32.0998H53.11C53.9987 32.0998 54.8385 32.0998 55.272 32.5263C55.5306 32.7806 55.6091 33.1587 55.5105 33.681Z" fill="#298FC2"/>
<path fill-rule="evenodd" clip-rule="evenodd" d="M69.789 33.5529H67.4317C67.2294 33.5529 67.0573 33.6765 67.027 33.8442L66.9226 34.3991L66.7569 34.1981C66.2463 33.5746 65.1083 33.3662 63.9717 33.3662C61.3654 33.3662 59.1401 35.0268 58.7066 37.356C58.4819 38.5179 58.8008 39.629 59.5843 40.4038C60.3048 41.1161 61.3316 41.413 62.5553 41.413C64.6553 41.413 65.8198 40.2772 65.8198 40.2772L65.7148 40.8285C65.6753 41.0392 65.8682 41.2282 66.121 41.2282H68.2449C68.5812 41.2282 68.8678 41.0223 68.9204 40.7418L70.1959 33.9515C70.2348 33.7424 70.0417 33.5529 69.789 33.5529ZM66.5013 37.4143C66.2752 38.5476 65.2042 39.3085 63.84 39.3085C63.1566 39.3085 62.6079 39.1237 62.2562 38.7736C61.9079 38.426 61.7767 37.931 61.886 37.3797C62.1001 36.256 63.1861 35.4702 64.5294 35.4702C65.1992 35.4702 65.7436 35.6576 66.1023 36.0105C66.463 36.3673 66.6056 36.8654 66.5013 37.4143Z" fill="#298FC2"/>
<path fill-rule="evenodd" clip-rule="evenodd" d="M72.3724 30.0928L70.3509 40.9109C70.3113 41.1207 70.5042 41.3095 70.7555 41.3095H72.788C73.1258 41.3095 73.4124 41.1037 73.4641 40.8232L75.4577 30.2C75.4975 29.9903 75.3043 29.8008 75.053 29.8008H72.7773C72.5763 29.8013 72.4035 29.925 72.3724 30.0928Z" fill="#298FC2"/>
</svg>
