<svg width="86" height="50" viewBox="0 0 86 50" fill="none" xmlns="http://www.w3.org/2000/svg">
<path d="M79.6317 1H6.14413C3.3031 1 1 2.93172 1 5.31461V44.7625C1 47.1454 3.3031 49.0771 6.14413 49.0771H79.6317C82.4727 49.0771 84.7758 47.1454 84.7758 44.7625V5.31461C84.7758 2.93172 82.4727 1 79.6317 1Z" fill="white" stroke="black"/>
<path d="M38.1139 34.2017H32.4385L35.9884 16.9424H41.6635L38.1139 34.2017Z" fill="#15195A"/>
<path d="M58.6878 17.3647C57.5683 17.0155 55.7928 16.6299 53.5975 16.6299C47.9927 16.6299 44.046 18.98 44.0217 22.3398C43.9751 24.8188 46.8475 26.1956 48.9958 27.0222C51.1915 27.8669 51.938 28.4181 51.938 29.171C51.9156 30.3273 50.1637 30.8602 48.5296 30.8602C46.2637 30.8602 45.0497 30.5854 43.2046 29.9422L42.4573 29.6664L41.6631 33.5407C42.9942 34.0175 45.4467 34.4407 47.9927 34.4593C53.9478 34.4593 57.8248 32.1456 57.8706 28.5651C57.8932 26.6003 56.3766 25.0948 53.1067 23.8646C51.1217 23.0749 49.906 22.5424 49.906 21.7344C49.9294 20.9998 50.9343 20.2475 53.1751 20.2475C55.02 20.2106 56.3757 20.5594 57.4026 20.9084L57.9159 21.0917L58.6878 17.3647Z" fill="#15195A"/>
<path fill-rule="evenodd" clip-rule="evenodd" d="M68.8462 16.9424H73.236L77.8147 34.2015H72.5598C72.5598 34.2015 72.0455 32.2185 71.8827 31.6124H64.5958C64.3852 32.0713 63.4047 34.2015 63.4047 34.2015H57.4497L65.8798 18.3743C66.4638 17.2543 67.4924 16.9424 68.8462 16.9424ZM68.4964 23.2584C68.4964 23.2584 66.6978 27.0958 66.2304 28.0873H70.9479C70.7145 27.2245 69.6397 23.093 69.6397 23.093L69.2431 21.606C69.076 21.9889 68.8345 22.5154 68.6715 22.8705C68.5612 23.1112 68.4868 23.2732 68.4964 23.2584Z" fill="#15195A"/>
<path fill-rule="evenodd" clip-rule="evenodd" d="M7.84781 16.9424H16.9789C18.2168 16.9787 19.221 17.2909 19.5478 18.3932L21.5322 26.3232L21.5328 26.3247L22.1401 28.7115L27.6983 16.9424H33.6995L24.7787 34.1835H18.7772L13.7187 19.1866C11.9734 18.3842 9.98145 17.7389 7.75439 17.2911L7.84781 16.9424Z" fill="#15195A"/>
<path fill-rule="evenodd" clip-rule="evenodd" d="M49.2962 43.616C49.2208 43.6275 49.1247 43.6333 49.0081 43.6333C48.6858 43.6333 48.4559 43.5528 48.3188 43.3917C48.1817 43.2306 48.113 42.9947 48.113 42.6841V37.3857H48.9567V42.7359C48.9567 42.8509 48.9806 42.9315 49.0287 42.9775C49.0768 43.0235 49.1316 43.0465 49.1933 43.0465H49.2705C49.2944 43.0465 49.3304 43.0407 49.3785 43.0293L49.4917 43.5643C49.4368 43.5873 49.3716 43.6046 49.2962 43.616ZM46.7653 42.9171V43.5298H42.7734V37.869H46.6624V38.473H43.6274V40.2506H46.1891V40.8633H43.6274V42.9171H46.7653ZM52.7633 43.6333C53.1062 43.6333 53.4115 43.5902 53.679 43.5039C53.9465 43.4176 54.19 43.3169 54.4095 43.2018L54.1111 42.7359C53.9259 42.8336 53.7322 42.9128 53.5298 42.9732C53.3274 43.0336 53.1062 43.0638 52.8662 43.0638C52.386 43.0638 51.9969 42.9329 51.6985 42.6711C51.4001 42.4094 51.2338 42.0542 51.1995 41.6054H54.5741C54.5877 41.5537 54.5964 41.4918 54.5998 41.4199C54.6032 41.348 54.6049 41.2747 54.6049 41.1999C54.6049 40.9007 54.5604 40.6303 54.4712 40.3887C54.382 40.1471 54.2534 39.94 54.0854 39.7674C53.9174 39.5948 53.7081 39.4625 53.4578 39.3705C53.2075 39.2784 52.9246 39.2324 52.609 39.2324C52.3209 39.2324 52.0432 39.2827 51.7757 39.3834C51.5082 39.4841 51.2698 39.6293 51.0606 39.8192C50.8515 40.009 50.6833 40.2405 50.5565 40.5138C50.4297 40.7871 50.3662 41.0963 50.3662 41.4415C50.3662 41.7866 50.4279 42.0945 50.5514 42.3648C50.6748 42.6351 50.8446 42.8638 51.0606 43.0508C51.2767 43.2378 51.5305 43.3816 51.822 43.4823C52.1134 43.583 52.4272 43.6333 52.7633 43.6333ZM51.1892 41.0963H53.8642C53.8642 40.6706 53.7562 40.347 53.5401 40.1255C53.324 39.904 53.0205 39.7933 52.6296 39.7933C52.4513 39.7933 52.2815 39.822 52.1203 39.8796C51.9591 39.9372 51.8134 40.022 51.6831 40.1341C51.5527 40.2463 51.4447 40.3829 51.359 40.544C51.2733 40.7052 51.2167 40.8892 51.1892 41.0963ZM57.8149 43.6333C58.1166 43.6333 58.4047 43.5858 58.6791 43.4909C58.9535 43.396 59.2038 43.2651 59.4301 43.0983L59.0597 42.6237C58.902 42.7387 58.7254 42.8379 58.5299 42.9214C58.3344 43.0048 58.1201 43.0465 57.8869 43.0465C57.6605 43.0465 57.4514 43.0077 57.2593 42.93C57.0672 42.8524 56.9044 42.743 56.7706 42.6021C56.6369 42.4612 56.5322 42.2929 56.4568 42.0973C56.3814 41.9017 56.3436 41.6831 56.3436 41.4415C56.3436 41.1999 56.383 40.9798 56.462 40.7813C56.5409 40.5829 56.6489 40.4118 56.786 40.2679C56.9232 40.124 57.0878 40.0133 57.2799 39.9357C57.472 39.858 57.6811 39.8192 57.9075 39.8192C58.1063 39.8192 58.2864 39.8537 58.4476 39.9227C58.6088 39.9918 58.7614 40.0809 58.9054 40.1902L59.3375 39.7243C59.1592 39.592 58.9535 39.4768 58.7202 39.3791C58.487 39.2813 58.2058 39.2324 57.8766 39.2324C57.5543 39.2324 57.2472 39.2813 56.9558 39.3791C56.6643 39.4768 56.4088 39.6207 56.1893 39.8106C55.9699 40.0004 55.795 40.2319 55.6646 40.5052C55.5343 40.7785 55.4691 41.0905 55.4691 41.4415C55.4691 41.7866 55.5291 42.0958 55.6492 42.3691C55.7693 42.6424 55.9339 42.8724 56.143 43.0595C56.3522 43.2465 56.6009 43.3888 56.8889 43.4866C57.177 43.5844 57.4856 43.6333 57.8149 43.6333ZM62.4806 43.5858C62.3194 43.6175 62.1599 43.6333 62.0022 43.6333C61.7347 43.6333 61.5101 43.5988 61.3283 43.5298C61.1465 43.4607 60.9991 43.3658 60.8859 43.245C60.7727 43.1242 60.6922 42.9775 60.6441 42.8049C60.5961 42.6323 60.5721 42.4425 60.5721 42.2354V39.9141H59.8314V39.3791L60.6133 39.3359L60.7162 38.1624H61.426V39.3359H62.7738V39.9141H61.426V42.244C61.426 42.5029 61.4826 42.7028 61.5958 42.8437C61.709 42.9846 61.9096 43.0551 62.1977 43.0551C62.2869 43.0551 62.3828 43.0437 62.4857 43.0206C62.5886 42.9976 62.6812 42.9717 62.7635 42.943L62.9281 43.478C62.791 43.5183 62.6418 43.5542 62.4806 43.5858ZM64.7491 43.5298V40.8374C64.9207 40.4808 65.1213 40.2306 65.351 40.0867C65.5807 39.9428 65.8019 39.871 66.0146 39.871C66.1175 39.871 66.2032 39.8768 66.2718 39.8882C66.3404 39.8997 66.4158 39.9169 66.4981 39.94L66.6628 39.3187C66.5051 39.2611 66.3266 39.2324 66.1278 39.2324C65.8397 39.2324 65.574 39.3101 65.3304 39.4654C65.0869 39.6207 64.8795 39.8306 64.708 40.0953H64.6771L64.6051 39.3359H63.9055V43.5298H64.7491ZM70.1968 43.4866C69.919 43.5844 69.6258 43.6333 69.3171 43.6333C69.0085 43.6333 68.7153 43.5844 68.4375 43.4866C68.1597 43.3888 67.9145 43.2465 67.7019 43.0595C67.4892 42.8724 67.3194 42.6424 67.1926 42.3691C67.0658 42.0958 67.0023 41.7866 67.0023 41.4415C67.0023 41.0905 67.0658 40.7785 67.1926 40.5052C67.3194 40.2319 67.4892 40.0004 67.7019 39.8106C67.9145 39.6207 68.1597 39.4768 68.4375 39.3791C68.7153 39.2813 69.0085 39.2324 69.3171 39.2324C69.6258 39.2324 69.919 39.2813 70.1968 39.3791C70.4746 39.4768 70.7197 39.6207 70.9324 39.8106C71.1451 40.0004 71.3148 40.2319 71.4417 40.5052C71.5685 40.7785 71.632 41.0905 71.632 41.4415C71.632 41.7866 71.5685 42.0958 71.4417 42.3691C71.3148 42.6424 71.1451 42.8724 70.9324 43.0595C70.7197 43.2465 70.4746 43.3888 70.1968 43.4866ZM69.3171 43.0465C69.1045 43.0465 68.909 43.0077 68.7307 42.93C68.5524 42.8524 68.3997 42.743 68.2729 42.6021C68.146 42.4612 68.0483 42.2929 67.9797 42.0973C67.911 41.9017 67.8768 41.6831 67.8768 41.4415C67.8768 41.1999 67.911 40.9798 67.9797 40.7813C68.0483 40.5829 68.146 40.4118 68.2729 40.2679C68.3997 40.124 68.5524 40.0133 68.7307 39.9357C68.909 39.858 69.1045 39.8192 69.3171 39.8192C69.5298 39.8192 69.7253 39.858 69.9036 39.9357C70.0818 40.0133 70.2346 40.124 70.3614 40.2679C70.4882 40.4118 70.586 40.5829 70.6546 40.7813C70.7232 40.9798 70.7575 41.1999 70.7575 41.4415C70.7575 41.6831 70.7232 41.9017 70.6546 42.0973C70.586 42.2929 70.4882 42.4612 70.3614 42.6021C70.2346 42.743 70.0818 42.8524 69.9036 42.93C69.7253 43.0077 69.5298 43.0465 69.3171 43.0465ZM73.7925 40.4923V43.5298H72.9489V39.3359H73.6485L73.7205 39.94H73.7514C73.9914 39.7387 74.2434 39.5704 74.5076 39.4352C74.7717 39.2999 75.0786 39.2324 75.4284 39.2324C75.9564 39.2324 76.3423 39.3705 76.5858 39.6466C76.8293 39.9227 76.951 40.3311 76.951 40.872V43.5298H76.1074V40.9669C76.1074 40.5699 76.032 40.2837 75.881 40.1083C75.7301 39.9328 75.4901 39.8451 75.1609 39.8451C74.9003 39.8451 74.6704 39.8997 74.4715 40.009C74.2727 40.1184 74.0464 40.2794 73.7925 40.4923Z" fill="#15195A"/>
</svg>
