<svg width="77" height="33" viewBox="0 0 77 33" fill="none" xmlns="http://www.w3.org/2000/svg">
<path d="M15.0381 0C14.4579 0.00167042 13.891 0.172833 13.4074 0.492293C12.9239 0.811754 12.545 1.26548 12.3177 1.7973C5.16368 2.20463 -0.0222581 2.88964 7.18351e-05 3.42508C0.0208618 3.95667 5.1683 4.18987 12.2646 3.98045C12.511 4.64169 12.9853 5.19246 13.6029 5.53535H12.4509V7.63872H11.0419C10.9534 7.63862 10.8658 7.65589 10.7841 7.68953C10.7023 7.72318 10.6281 7.77255 10.5655 7.83482C10.5029 7.89708 10.4533 7.97103 10.4194 8.05242C10.3855 8.13381 10.3681 8.22105 10.3681 8.30916V9.80806C10.3681 10.1786 10.6692 10.4785 11.0411 10.4785H20.5244C22.9137 11.0385 23.1809 11.8923 24.9704 13.4548C24.6778 15.0757 24.2466 16.8454 23.9093 18.375V31.3949C23.9093 31.8206 24.0791 32.2288 24.3812 32.5299C24.6834 32.8309 25.0932 33 25.5205 33C25.9478 33 26.3577 32.8309 26.6598 32.5299C26.962 32.2288 27.1317 31.8206 27.1317 31.3949V25.0993C27.0948 19.8064 27.9526 17.6662 30.9086 13.5691L31.6516 13.2255C31.6516 16.4058 33.8584 16.5968 36.9708 17.3064H34.6331C33.9216 17.3064 33.3441 17.8817 33.3441 18.5913V26.2622C33.3441 26.971 33.9216 27.5463 34.6331 27.5463H42.3669C43.0784 27.5463 43.6559 26.971 43.6559 26.2622V18.5913C43.6559 17.8817 43.0784 17.3072 42.3669 17.3072H40.0315C43.1431 16.5953 45.3484 16.4051 45.3484 13.2255L46.0914 13.5691C49.8313 17.4245 49.8683 20.0488 49.8683 25.0985V31.3941C49.8683 31.8198 50.038 32.2281 50.3402 32.5291C50.6423 32.8301 51.0522 32.9992 51.4795 32.9992C51.9068 32.9992 52.3166 32.8301 52.6188 32.5291C52.921 32.2281 53.0907 31.8198 53.0907 31.3941V18.375C52.6957 16.6943 52.273 14.933 51.8741 13.1879C53.5673 11.5348 54.2619 11.1628 56.4602 10.4785H65.9589C66.1374 10.4785 66.3086 10.4079 66.4348 10.2821C66.561 10.1564 66.6319 9.98588 66.6319 9.80806V8.30916C66.6319 8.13135 66.561 7.96082 66.4348 7.83509C66.3086 7.70936 66.1374 7.63872 65.9589 7.63872H64.5491V5.53535H63.3971C64.015 5.19258 64.4897 4.64112 64.7354 3.98045C71.8317 4.18987 76.9791 3.95667 76.9999 3.42508C77.0223 2.88964 71.8363 2.2054 64.6823 1.7973C64.4629 1.28443 64.1024 0.843834 63.6424 0.526416C63.1823 0.208997 62.6415 0.027704 62.0825 0.00347783C61.5234 -0.0207483 60.9689 0.113081 60.4829 0.389506C59.9969 0.665932 59.5994 1.07368 59.3362 1.56564C52.1698 1.34855 46.9369 1.57945 46.9068 2.11488C46.8845 2.64647 52.0004 3.32689 59.0936 3.73498C59.1977 4.11376 59.3765 4.46807 59.6197 4.77719C59.8628 5.08632 60.1654 5.34406 60.5096 5.53535H59.3577V7.63872C52.0936 7.62185 46.471 3.98505 38.5 3.83547C30.7977 3.9981 24.3474 7.63872 17.6423 7.63872V5.53535H16.4904C16.8346 5.34406 17.1372 5.08632 17.3803 4.77719C17.6235 4.46807 17.8023 4.11376 17.9064 3.73498C24.9996 3.32689 30.1155 2.64571 30.0932 2.11488C30.0631 1.57945 24.8302 1.34778 17.6638 1.56564C17.4103 1.09171 17.0318 0.695595 16.5692 0.419876C16.1065 0.144158 15.5772 -0.00150466 15.0381 0ZM38.5 19.1873C40.3072 19.1873 41.7925 20.667 41.7925 22.4674C41.7925 24.2678 40.3072 25.7483 38.5 25.7483C36.6928 25.7483 35.2059 24.2678 35.2059 22.4674C35.2059 20.667 36.692 19.1873 38.5 19.1873ZM38.5 21.1127C37.7377 21.1127 37.1394 21.708 37.1394 22.4674C37.1394 23.2268 37.7377 23.8221 38.5 23.8221C39.2623 23.8221 39.859 23.2268 39.859 22.4674C39.859 21.708 39.2623 21.1127 38.5 21.1127Z" fill="white"/>
</svg>
