<svg width="92" height="13" viewBox="0 0 92 13" fill="none" xmlns="http://www.w3.org/2000/svg">
<path d="M5.52 0.672C6.704 0.672 7.73867 0.912 8.624 1.392C9.52 1.872 10.208 2.53867 10.688 3.392C11.168 4.24533 11.408 5.216 11.408 6.304C11.408 7.38133 11.168 8.352 10.688 9.216C10.208 10.08 9.52 10.7627 8.624 11.264C7.73867 11.7547 6.704 12 5.52 12H0.8V0.672H5.52ZM5.2 8.832C6 8.832 6.63467 8.61333 7.104 8.176C7.57333 7.73867 7.808 7.11467 7.808 6.304C7.808 5.49333 7.57333 4.86933 7.104 4.432C6.63467 3.99467 6 3.776 5.2 3.776H4.352V8.832H5.2ZM16.2426 4.64C16.6053 4.11733 17.048 3.70133 17.5706 3.392C18.0933 3.072 18.6373 2.912 19.2026 2.912V6.704H18.1946C17.5226 6.704 17.0266 6.82133 16.7066 7.056C16.3973 7.29067 16.2426 7.70667 16.2426 8.304V12H12.6906V2.976H16.2426V4.64ZM24.4474 12.112C23.5407 12.112 22.7247 11.9253 21.9994 11.552C21.274 11.1787 20.7034 10.6453 20.2874 9.952C19.882 9.248 19.6794 8.42667 19.6794 7.488C19.6794 6.54933 19.882 5.73333 20.2874 5.04C20.7034 4.336 21.274 3.79733 21.9994 3.424C22.7247 3.05067 23.5407 2.864 24.4474 2.864C25.354 2.864 26.17 3.05067 26.8954 3.424C27.6207 3.79733 28.186 4.336 28.5914 5.04C29.0074 5.73333 29.2154 6.54933 29.2154 7.488C29.2154 8.42667 29.0074 9.248 28.5914 9.952C28.186 10.6453 27.6207 11.1787 26.8954 11.552C26.17 11.9253 25.354 12.112 24.4474 12.112ZM24.4474 9.04C24.778 9.04 25.0554 8.912 25.2794 8.656C25.5034 8.38933 25.6154 8 25.6154 7.488C25.6154 6.976 25.5034 6.592 25.2794 6.336C25.0554 6.06933 24.778 5.936 24.4474 5.936C24.1167 5.936 23.8394 6.06933 23.6154 6.336C23.3914 6.592 23.2794 6.976 23.2794 7.488C23.2794 8 23.386 8.38933 23.5994 8.656C23.8234 8.912 24.106 9.04 24.4474 9.04ZM36.6513 2.912C37.6859 2.912 38.4913 3.25867 39.0673 3.952C39.6539 4.64533 39.9473 5.584 39.9473 6.768V12H36.4113V7.216C36.4113 6.78933 36.2939 6.45333 36.0593 6.208C35.8353 5.952 35.5313 5.824 35.1473 5.824C34.7526 5.824 34.4433 5.952 34.2193 6.208C33.9953 6.45333 33.8833 6.78933 33.8833 7.216V12H30.3313V2.976H33.8833V4.352C34.1606 3.92533 34.5286 3.57867 34.9873 3.312C35.4566 3.04533 36.0113 2.912 36.6513 2.912ZM50.2235 7.408C50.2235 7.65333 50.2075 7.888 50.1755 8.112H44.4635C44.5168 8.89067 44.8422 9.28 45.4395 9.28C45.8235 9.28 46.1008 9.104 46.2715 8.752H50.0315C49.9035 9.392 49.6315 9.968 49.2155 10.48C48.8102 10.9813 48.2928 11.3813 47.6635 11.68C47.0448 11.968 46.3622 12.112 45.6155 12.112C44.7195 12.112 43.9195 11.9253 43.2155 11.552C42.5222 11.1787 41.9782 10.6453 41.5835 9.952C41.1995 9.248 41.0075 8.42667 41.0075 7.488C41.0075 6.54933 41.1995 5.73333 41.5835 5.04C41.9782 4.336 42.5222 3.79733 43.2155 3.424C43.9195 3.05067 44.7195 2.864 45.6155 2.864C46.5115 2.864 47.3062 3.05067 47.9995 3.424C48.7035 3.78667 49.2475 4.30933 49.6315 4.992C50.0262 5.67467 50.2235 6.48 50.2235 7.408ZM46.6235 6.56C46.6235 6.26133 46.5275 6.03733 46.3355 5.888C46.1435 5.728 45.9035 5.648 45.6155 5.648C44.9862 5.648 44.6182 5.952 44.5115 6.56H46.6235Z" fill="white"/>
<path d="M55.2829 9.168H59.8269V12H51.3469V9.328L55.8269 3.488H51.3469V0.672H59.8269V3.344L55.2829 9.168ZM65.713 12.112C64.8063 12.112 63.9903 11.9253 63.265 11.552C62.5397 11.1787 61.969 10.6453 61.553 9.952C61.1477 9.248 60.945 8.42667 60.945 7.488C60.945 6.54933 61.1477 5.73333 61.553 5.04C61.969 4.336 62.5397 3.79733 63.265 3.424C63.9903 3.05067 64.8063 2.864 65.713 2.864C66.6197 2.864 67.4357 3.05067 68.161 3.424C68.8863 3.79733 69.4517 4.336 69.857 5.04C70.273 5.73333 70.481 6.54933 70.481 7.488C70.481 8.42667 70.273 9.248 69.857 9.952C69.4517 10.6453 68.8863 11.1787 68.161 11.552C67.4357 11.9253 66.6197 12.112 65.713 12.112ZM65.713 9.04C66.0437 9.04 66.321 8.912 66.545 8.656C66.769 8.38933 66.881 8 66.881 7.488C66.881 6.976 66.769 6.592 66.545 6.336C66.321 6.06933 66.0437 5.936 65.713 5.936C65.3823 5.936 65.105 6.06933 64.881 6.336C64.657 6.592 64.545 6.976 64.545 7.488C64.545 8 64.6517 8.38933 64.865 8.656C65.089 8.912 65.3717 9.04 65.713 9.04ZM77.9169 2.912C78.9515 2.912 79.7569 3.25867 80.3329 3.952C80.9195 4.64533 81.2129 5.584 81.2129 6.768V12H77.6769V7.216C77.6769 6.78933 77.5595 6.45333 77.3249 6.208C77.1009 5.952 76.7969 5.824 76.4129 5.824C76.0182 5.824 75.7089 5.952 75.4849 6.208C75.2609 6.45333 75.1489 6.78933 75.1489 7.216V12H71.5969V2.976H75.1489V4.352C75.4262 3.92533 75.7942 3.57867 76.2529 3.312C76.7222 3.04533 77.2769 2.912 77.9169 2.912ZM91.4891 7.408C91.4891 7.65333 91.4731 7.888 91.4411 8.112H85.7291C85.7825 8.89067 86.1078 9.28 86.7051 9.28C87.0891 9.28 87.3665 9.104 87.5371 8.752H91.2971C91.1691 9.392 90.8971 9.968 90.4811 10.48C90.0758 10.9813 89.5585 11.3813 88.9291 11.68C88.3105 11.968 87.6278 12.112 86.8811 12.112C85.9851 12.112 85.1851 11.9253 84.4811 11.552C83.7878 11.1787 83.2438 10.6453 82.8491 9.952C82.4651 9.248 82.2731 8.42667 82.2731 7.488C82.2731 6.54933 82.4651 5.73333 82.8491 5.04C83.2438 4.336 83.7878 3.79733 84.4811 3.424C85.1851 3.05067 85.9851 2.864 86.8811 2.864C87.7771 2.864 88.5718 3.05067 89.2651 3.424C89.9691 3.78667 90.5131 4.30933 90.8971 4.992C91.2918 5.67467 91.4891 6.48 91.4891 7.408ZM87.8891 6.56C87.8891 6.26133 87.7931 6.03733 87.6011 5.888C87.4091 5.728 87.1691 5.648 86.8811 5.648C86.2518 5.648 85.8838 5.952 85.7771 6.56H87.8891Z" fill="#FF7A00"/>
</svg>
