<svg width="21" height="13" viewBox="0 0 21 13" fill="none" xmlns="http://www.w3.org/2000/svg">
<path d="M2.53842 10.1538H12.7487L14.5063 2.53845H2.53842V10.1538ZM9.8365 6.02884H11.7403C11.9158 6.02884 12.0576 6.17067 12.0576 6.34614C12.0576 6.52161 11.9158 6.66345 11.7403 6.66345H9.8365C9.66102 6.66345 9.51919 6.52161 9.51919 6.34614C9.51919 6.17067 9.66102 6.02884 9.8365 6.02884ZM4.75957 6.02884H5.39419V5.39422C5.39419 5.21875 5.53603 5.07691 5.7115 5.07691C5.88697 5.07691 6.0288 5.21875 6.0288 5.39422V6.02884H6.66342C6.83889 6.02884 6.98073 6.17067 6.98073 6.34614C6.98073 6.52161 6.83889 6.66345 6.66342 6.66345H6.0288V7.29807C6.0288 7.47354 5.88697 7.61537 5.7115 7.61537C5.53603 7.61537 5.39419 7.47354 5.39419 7.29807V6.66345H4.75957C4.5841 6.66345 4.44227 6.52161 4.44227 6.34614C4.44227 6.17067 4.5841 6.02884 4.75957 6.02884Z" fill="#A9A9A9"/>
<path d="M17.1346 0H1.26923C0.567663 0 0 0.567663 0 1.26923V11.4231C0 12.1246 0.567663 12.6923 1.26923 12.6923H17.1346C17.8362 12.6923 18.4038 12.1246 18.4038 11.4231V1.26923C18.4038 0.567663 17.8362 0 17.1346 0ZM15.2206 2.26589L13.3269 10.4711C13.2638 10.6603 13.1445 10.7885 12.969 10.7885H2.22115C2.04568 10.7885 1.90385 10.6466 1.90385 10.4711V2.22115C1.90385 2.04568 2.04568 1.90385 2.22115 1.90385H14.9522C15.1276 1.90385 15.2831 2.04156 15.2206 2.26589Z" fill="#A9A9A9"/>
<path d="M19.0385 3.1731V9.51925C19.7401 9.51925 20.3078 8.95158 20.3078 8.25002V4.44233C20.3078 3.74076 19.7401 3.1731 19.0385 3.1731Z" fill="#A9A9A9"/>
</svg>
