<svg width="23" height="21" viewBox="0 0 23 21" fill="none" xmlns="http://www.w3.org/2000/svg">
<path fill-rule="evenodd" clip-rule="evenodd" d="M6.1433 2.45206C6.6286 1.55771 6.87125 1.11176 7.20935 0.786882C7.50839 0.499309 7.86017 0.28218 8.24205 0.149471C8.6733 6.44256e-08 9.154 0 10.1165 0H12.8823C13.846 0 14.3267 6.44256e-08 14.7579 0.149471C15.1398 0.28218 15.4916 0.499309 15.7906 0.786882C16.1287 1.11176 16.3714 1.55771 16.8567 2.45206L17.5375 3.70588H18.4C20.01 3.70588 20.815 3.70588 21.4303 4.04188C21.9711 4.33822 22.4107 4.81086 22.686 5.39206C23 6.05294 23 6.91765 23 8.64706V16.0588C23 17.7882 23 18.6529 22.686 19.3138C22.4105 19.8946 21.9709 20.3667 21.4303 20.6628C20.815 21 20.01 21 18.4 21H4.6C2.99 21 2.185 21 1.56975 20.6628C1.02868 20.367 0.588679 19.8948 0.3128 19.3138C6.85453e-08 18.6529 0 17.7882 0 16.0588V8.64706C0 6.91765 6.85453e-08 6.05294 0.3128 5.39206C0.588484 4.81067 1.02851 4.33801 1.56975 4.04188C2.185 3.70588 2.99 3.70588 4.6 3.70588H5.4625L6.1433 2.45206ZM11.5 17.3559C12.9487 17.3559 14.3382 16.7377 15.3626 15.6373C16.387 14.5369 16.9625 13.0444 16.9625 11.4882C16.9625 9.93204 16.387 8.43958 15.3626 7.33918C14.3382 6.23879 12.9487 5.62059 11.5 5.62059C10.0513 5.62059 8.66185 6.23879 7.63743 7.33918C6.61301 8.43958 6.0375 9.93204 6.0375 11.4882C6.0375 13.0444 6.61301 14.5369 7.63743 15.6373C8.66185 16.7377 10.0513 17.3559 11.5 17.3559ZM14.605 11.4882C14.605 12.3728 14.2779 13.2212 13.6956 13.8466C13.1133 14.4721 12.3235 14.8235 11.5 14.8235C10.6765 14.8235 9.88673 14.4721 9.30443 13.8466C8.72213 13.2212 8.395 12.3728 8.395 11.4882C8.395 10.6037 8.72213 9.75532 9.30443 9.12983C9.88673 8.50434 10.6765 8.15294 11.5 8.15294C12.3235 8.15294 13.1133 8.50434 13.6956 9.12983C14.2779 9.75532 14.605 10.6037 14.605 11.4882Z" fill="#E7E7E7"/>
</svg>
