<svg width="16" height="20" viewBox="0 0 16 20" fill="none" xmlns="http://www.w3.org/2000/svg">
<path d="M7.01391 11.069C7.01391 9.13522 5.4407 7.56201 3.50692 7.56201C1.57317 7.56201 0 9.13522 0 11.069C0 11.6356 0.135209 12.1713 0.374935 12.6454L3.50692 19.1042L6.63945 12.6444C6.87882 12.1705 7.01391 11.6352 7.01391 11.069ZM3.50692 13.0097C2.43682 13.0097 1.56617 12.1391 1.56617 11.069C1.56617 9.99887 2.43682 9.12822 3.50692 9.12822C4.57706 9.12822 5.44766 9.99887 5.44766 11.069C5.44766 12.1391 4.57706 13.0097 3.50692 13.0097Z" fill="#A9A9A9"/>
<path d="M13.4442 0C12.465 0 11.6684 0.796622 11.6684 1.7758C11.6684 2.06276 11.7369 2.33397 11.8582 2.57413L13.4442 5.8447L15.0304 2.57362C15.1516 2.33361 15.22 2.06256 15.22 1.77584C15.22 0.796622 14.4233 0 13.4442 0ZM13.4442 2.75856C12.9023 2.75856 12.4614 2.31771 12.4614 1.7758C12.4614 1.23393 12.9023 0.793044 13.4442 0.793044C13.986 0.793044 14.4269 1.23393 14.4269 1.7758C14.4269 2.31771 13.986 2.75856 13.4442 2.75856Z" fill="#A9A9A9"/>
<path d="M11.8974 11.5205C11.8254 11.1817 11.7318 10.8496 11.614 10.5237C11.456 10.0869 11.2665 9.66 11.1213 9.21824C10.8501 8.39248 11.3181 7.70336 11.406 7.57809C11.5601 7.35875 11.7403 7.15747 11.9304 6.96895C12.2964 6.60606 12.7001 6.28166 13.1224 5.98289C13.0701 5.90183 13.0194 5.8199 12.9711 5.73645C12.3637 5.97459 9.23991 7.06635 9.31608 9.47828C9.33135 9.96179 9.51816 10.422 9.63329 10.8906C9.68875 11.1165 9.73685 11.3443 9.76627 11.5751C9.77895 11.6791 9.78675 11.7836 9.79526 11.888C9.79549 11.8872 9.79541 11.8867 9.79494 11.8862C9.79522 11.8893 9.80297 12.2172 9.78842 12.3593C9.74282 12.8042 9.67714 13.2536 9.48961 13.6616C9.31521 14.041 9.05206 14.371 8.72659 14.6318C7.98252 15.2278 6.99666 15.4661 6.06642 15.562C6.02214 15.5666 5.97785 15.5706 5.93356 15.5744L4.27261 18.9995C5.09213 18.9485 5.90955 18.8364 6.70704 18.6401C7.64555 18.4091 8.56017 18.0602 9.37969 17.5429C10.1985 17.0263 10.9026 16.3273 11.3714 15.4763C11.8618 14.5861 12.0583 13.5665 12.0164 12.5562C12.0022 12.211 11.9695 11.8592 11.8974 11.5205Z" fill="#A9A9A9"/>
</svg>
