<svg width="25" height="25" viewBox="0 0 25 25" fill="none" xmlns="http://www.w3.org/2000/svg">
<path d="M12.5 0C9.98471 0 7.92411 2.12707 7.92411 4.7235C7.92411 6.21037 8.60061 7.5424 9.65056 8.41014H5.35714L0 25H25L19.6429 8.41014H15.3494C16.3994 7.5424 17.0759 6.21037 17.0759 4.7235C17.0759 2.12707 15.0153 0 12.5 0ZM12.5 2.07373C13.9296 2.07373 15.067 3.24781 15.067 4.7235C15.067 6.19919 13.9296 7.37327 12.5 7.37327C11.0704 7.37327 9.93304 6.19919 9.93304 4.7235C9.93304 3.24781 11.0704 2.07373 12.5 2.07373ZM7.91211 13.7644H9.22349V15.6805L11.1137 13.7643H12.6362L10.1874 16.2499L12.8883 19.0134H11.2467L9.22349 16.9461V19.0134H7.91211V13.7644ZM14.6049 14.9879C14.8705 14.9879 15.1044 15.0417 15.3065 15.1495C15.5085 15.2574 15.6936 15.4272 15.8617 15.6593V15.0758H17.0878V18.6162C17.0878 19.2491 16.8936 19.7319 16.5054 20.0647C16.1194 20.4 15.5585 20.5675 14.8228 20.5675C14.5844 20.5675 14.354 20.5487 14.1314 20.5112C13.9089 20.4738 13.6852 20.4164 13.4604 20.339V19.358C13.6739 19.4846 13.8828 19.5784 14.0871 19.6393C14.2915 19.7026 14.497 19.7343 14.7037 19.7343C15.1033 19.7343 15.3962 19.6441 15.5824 19.4635C15.7686 19.2831 15.8617 19.0007 15.8617 18.6163V18.3456C15.6938 18.5752 15.5086 18.744 15.3065 18.8518C15.1045 18.9595 14.8705 19.0135 14.6049 19.0135C14.1393 19.0135 13.7545 18.8249 13.4503 18.4475C13.146 18.0678 12.9938 17.585 12.9938 16.999C12.9938 16.4107 13.146 15.929 13.4503 15.554C13.7545 15.1767 14.1393 14.9879 14.6049 14.9879ZM15.0579 15.8949C14.8058 15.8949 14.6093 15.9911 14.4686 16.1832C14.3278 16.3755 14.2574 16.6474 14.2574 16.999C14.2574 17.36 14.3255 17.6342 14.4618 17.8216C14.598 18.0068 14.7968 18.0994 15.0579 18.0994C15.3122 18.0994 15.5097 18.0032 15.6505 17.8111C15.7912 17.6188 15.8617 17.3482 15.8617 16.999C15.8617 16.6474 15.7912 16.3755 15.6504 16.1833C15.5097 15.9911 15.3122 15.8949 15.0578 15.8949H15.0579Z" fill="#E7E7E7"/>
</svg>
